M48
; DRILL file {KiCad 6.99.0-unknown-a89102fdfc~160~ubuntu20.04.1} date on. 22. feb. 2023 kl. 01.11 +0100
; FORMAT={-:-/ absolute / inch / decimal}
; #@! TF.CreationDate,2023-02-22T01:11:52+01:00
; #@! TF.GenerationSoftware,Kicad,Pcbnew,6.99.0-unknown-a89102fdfc~160~ubuntu20.04.1
; #@! TF.FileFunction,Plated,1,2,PTH
FMAT,2
INCH
; #@! TA.AperFunction,Plated,PTH,ViaDrill
T1C0.0276
; #@! TA.AperFunction,Plated,PTH,ComponentDrill
T2C0.0300
; #@! TA.AperFunction,Plated,PTH,ViaDrill
T3C0.0354
; #@! TA.AperFunction,Plated,PTH,ComponentDrill
T4C0.0354
; #@! TA.AperFunction,Plated,PTH,ViaDrill
T5C0.0394
; #@! TA.AperFunction,Plated,PTH,ComponentDrill
T6C0.0394
; #@! TA.AperFunction,Plated,PTH,ViaDrill
T7C0.0433
; #@! TA.AperFunction,Plated,PTH,ComponentDrill
T8C0.0433
; #@! TA.AperFunction,Plated,PTH,ComponentDrill
T9C0.0472
; #@! TA.AperFunction,Plated,PTH,ComponentDrill
T10C0.0551
; #@! TA.AperFunction,Plated,PTH,ComponentDrill
T11C0.0591
; #@! TA.AperFunction,Plated,PTH,ComponentDrill
T12C0.0630
; #@! TA.AperFunction,Plated,PTH,ComponentDrill
T13C0.0720
; #@! TA.AperFunction,Plated,PTH,ComponentDrill
T14C0.0787
; #@! TA.AperFunction,Plated,PTH,ComponentDrill
T15C0.0984
; #@! TA.AperFunction,Plated,PTH,ComponentDrill
T16C0.1575
%
G90
G05
T1
X9.05Y-5.4
T2
X2.2Y-5.0
X2.2Y-5.1
X2.25Y-7.2
X2.25Y-7.3
X4.3Y-6.9
X4.3Y-7.0
X4.3Y-7.1
X4.3Y-7.2
X4.3Y-7.3
X4.3Y-7.4
X4.9Y-6.9
X4.9Y-7.0
X4.9Y-7.1
X4.9Y-7.2
X4.9Y-7.3
X4.9Y-7.4
X5.5Y-4.3
X5.5Y-4.4
X6.3Y-4.3
X6.3Y-4.4
X6.8Y-6.1
X6.8Y-6.2
X6.8Y-6.3
X6.8Y-6.4
X6.8Y-6.5
X6.8Y-6.6
X7.1Y-4.3
X7.1Y-4.4
X8.4Y-6.7
X8.4Y-6.8
X8.4Y-6.9
X8.4Y-7.0
X11.9Y-5.9
X11.9Y-6.0
T3
X2.65Y-6.5
X3.15Y-6.6
X4.15Y-5.5
X4.25Y-4.7
X4.45Y-4.7
T4
X5.4524Y-5.6363
X5.4524Y-5.7062
X5.4524Y-5.7761
X5.4524Y-5.846
X5.4524Y-5.9159
X5.4524Y-5.9858
X5.4524Y-6.0557
X5.4524Y-6.1256
X5.4524Y-6.1955
X5.4524Y-6.2654
X5.4524Y-6.3353
X5.4524Y-6.4052
X5.4524Y-6.4751
X5.4524Y-6.545
X5.4524Y-6.6149
X5.4524Y-6.6848
X5.4524Y-6.7547
X5.4524Y-6.8246
X5.4524Y-6.8945
X5.4524Y-6.9644
X5.4524Y-7.0343
X5.4524Y-7.1042
X5.4524Y-7.1741
X5.4524Y-7.244
X5.4524Y-7.3139
X5.4524Y-7.3838
X5.4524Y-7.4537
X5.4524Y-7.5236
X5.4524Y-7.5935
X5.4524Y-7.6634
X5.4524Y-7.7333
X5.4524Y-7.8032
X6.2024Y-5.6363
X6.2024Y-5.7062
X6.2024Y-5.7761
X6.2024Y-5.846
X6.2024Y-5.9159
X6.2024Y-5.9858
X6.2024Y-6.0557
X6.2024Y-6.1256
X6.2024Y-6.1955
X6.2024Y-6.2654
X6.2024Y-6.3353
X6.2024Y-6.4052
X6.2024Y-6.4751
X6.2024Y-6.545
X6.2024Y-6.6149
X6.2024Y-6.6848
X6.2024Y-6.7547
X6.2024Y-6.8246
X6.2024Y-6.8945
X6.2024Y-6.9644
X6.2024Y-7.0343
X6.2024Y-7.1042
X6.2024Y-7.1741
X6.2024Y-7.244
X6.2024Y-7.3139
X6.2024Y-7.3838
X6.2024Y-7.4537
X6.2024Y-7.5236
X6.2024Y-7.5935
X6.2024Y-7.6634
X6.2024Y-7.7333
X6.2024Y-7.8032
T5
X0.75Y-4.25
X0.7603Y-4.3228
X0.85Y-4.25
X0.9Y-6.9
X0.95Y-6.8
X1.0Y-6.6
X1.0Y-6.7
X1.0Y-7.0
X1.0Y-7.3
X1.05Y-4.6
X1.05Y-6.4
X1.05Y-6.5
X1.1Y-6.3
X1.1Y-7.3
X1.2Y-5.5
X1.2Y-5.6
X1.2Y-7.3
X1.25Y-4.65
X1.25Y-7.05
X1.3Y-5.45
X1.3Y-5.6
X1.3Y-6.2
X1.4946Y-3.5445
X1.5Y-4.6
X1.5Y-4.75
X1.5Y-6.1
X1.5Y-7.3
X1.55Y-6.2
X1.55Y-7.15
X1.6Y-4.8
X1.6Y-7.9
X1.6Y-8.1
X1.65Y-7.8
X1.7Y-4.6
X1.7Y-7.55
X1.7Y-7.9
X1.7898Y-5.9475
X1.8Y-8.1
X1.85Y-6.2
X1.85Y-6.6
X1.85Y-7.2
X1.85Y-7.95
X1.9Y-3.55
X1.9Y-5.85
X1.9Y-6.75
X1.9Y-7.55
X1.9435Y-5.952
X1.95Y-6.6
X1.9832Y-6.4395
X2.0Y-3.55
X2.0Y-6.75
X2.15Y-7.75
X2.25Y-3.625
X2.25Y-7.75
X2.325Y-3.625
X2.55Y-4.5
X2.55Y-6.1
X2.55Y-6.2
X2.6Y-7.95
X2.65Y-5.65
X2.65Y-6.1
X2.65Y-6.4
X2.65Y-6.65
X2.65Y-7.55
X2.7Y-6.3
X2.7Y-7.95
X2.75Y-6.15
X2.75Y-6.75
X2.75Y-6.85
X2.8Y-5.5
X2.8Y-6.3
X2.8Y-6.6
X2.85Y-6.85
X2.9Y-5.5
X2.9Y-6.7
X2.9Y-7.55
X3.0Y-4.5
X3.05Y-5.55
X3.1Y-3.55
X3.15Y-7.05
X3.2Y-3.75
X3.2Y-3.95
X3.2Y-7.15
X3.25Y-3.55
X3.25Y-4.7
X3.25Y-6.8
X3.25Y-6.9
X3.3Y-7.2
X3.35Y-4.7
X3.35Y-7.1
X3.35Y-7.65
X3.4Y-6.5
X3.4Y-6.65
X3.45Y-5.5
X3.45Y-6.25
X3.45Y-6.35
X3.45Y-6.8
X3.45Y-7.0
X3.45Y-7.7
X3.5Y-6.9
X3.6Y-3.65
X3.65Y-4.05
X3.7Y-3.6
X3.75Y-4.0
X3.8Y-3.8
X3.9481Y-4.199
X4.1Y-4.8
X4.1Y-4.95
X4.1Y-5.4
X4.1Y-5.7
X4.1Y-5.8
X4.1Y-5.9
X4.1207Y-7.7927
X4.15Y-5.05
X4.15Y-6.0
X4.15Y-6.1
X4.2Y-4.8
X4.2Y-5.6
X4.2Y-5.9
X4.2Y-6.2
X4.2Y-6.3
X4.2255Y-7.7942
X4.25Y-4.9
X4.25Y-5.45
X4.25Y-6.1
X4.25Y-6.45
X4.3Y-4.15
X4.3Y-5.0
X4.3Y-5.35
X4.3Y-6.3
X4.35Y-3.95
X4.35Y-5.15
X4.35Y-5.25
X4.375Y-3.7
X4.4Y-3.85
X4.4Y-4.05
X4.4Y-4.4
X4.4Y-6.1
X4.4Y-6.3
X4.4Y-6.4
X4.45Y-5.2
X4.45Y-5.3
X4.45Y-6.2
X4.45Y-7.15
X4.45Y-7.3
X4.5Y-3.65
X4.5Y-4.1
X4.5Y-6.3
X4.6Y-3.6
X4.6Y-4.05
X4.6Y-4.25
X4.6Y-6.6
X4.7Y-3.65
X4.7Y-6.6
X4.7272Y-7.7977
X4.75Y-5.75
X4.8Y-4.1
X4.8Y-4.3
X4.8Y-4.8
X4.8Y-5.65
X4.8Y-5.9
X4.8Y-6.1
X4.8Y-7.8
X4.85Y-4.65
X4.9Y-3.55
X4.9Y-6.3
X4.95Y-5.6
X4.95Y-5.9
X5.0Y-4.1
X5.0Y-4.7
X5.0Y-4.9
X5.0Y-5.0
X5.0Y-5.15
X5.0Y-5.7
X5.0Y-6.0
X5.05Y-3.55
X5.0743Y-7.7986
X5.1Y-3.95
X5.1Y-6.6
X5.1Y-6.7
X5.1Y-7.6
X5.15Y-4.1
X5.15Y-7.4
X5.175Y-7.775
X5.2Y-3.55
X5.2Y-5.3
X5.2Y-7.65
X5.249Y-7.3082
X5.25Y-7.5
X5.25Y-7.8
X5.3Y-5.15
X5.3Y-5.3
X5.3Y-5.7
X5.3Y-6.1
X5.3Y-6.2
X5.3Y-6.75
X5.3258Y-4.8996
X5.3258Y-5.0003
X5.3279Y-7.5994
X5.35Y-7.8
X5.4Y-3.55
X5.4Y-5.2
X5.5Y-3.9
X5.5Y-4.05
X5.55Y-3.55
X5.55Y-5.1
X5.6Y-3.9
X5.6Y-4.5
X5.6Y-4.8
X5.6Y-4.9
X5.65Y-4.6
X5.65Y-7.1
X5.65Y-7.2
X5.65Y-7.3
X5.7Y-3.55
X5.7Y-4.3
X5.7Y-6.05
X5.7Y-6.9
X5.7Y-7.4
X5.75Y-5.65
X5.75Y-5.75
X5.75Y-5.85
X5.75Y-5.95
X5.8Y-4.0
X5.8Y-4.8
X5.8Y-4.9
X5.8Y-6.15
X5.8Y-8.15
X5.85Y-5.1
X5.85Y-5.85
X5.85Y-6.0
X5.9Y-3.9
X5.9Y-4.3
X5.9Y-5.7
X5.95Y-4.2
X5.95Y-5.25
X6.0Y-3.9
X6.0Y-5.1
X6.0Y-5.605
X6.0Y-5.7
X6.1Y-3.75
X6.1Y-4.1
X6.1Y-5.3
X6.1047Y-6.75
X6.15Y-4.8
X6.2Y-4.55
X6.25Y-3.75
X6.25Y-3.91
X6.3Y-4.1
X6.3Y-5.25
X6.3969Y-4.5747
X6.4Y-3.15
X6.4Y-3.3
X6.4Y-3.45
X6.4Y-4.1
X6.4Y-4.2
X6.4Y-4.45
X6.4Y-4.8
X6.4Y-6.95
X6.45Y-3.75
X6.45Y-7.45
X6.45Y-7.55
X6.45Y-7.95
X6.5Y-3.91
X6.5Y-4.15
X6.5Y-4.3
X6.5Y-5.3
X6.5Y-7.1
X6.5Y-7.2
X6.55Y-3.2
X6.55Y-7.3
X6.55Y-7.5
X6.55Y-7.9
X6.6Y-3.75
X6.6Y-4.3
X6.6Y-4.4
X6.6Y-4.7
X6.6Y-5.65
X6.6Y-5.75
X6.6Y-6.8
X6.6Y-7.05
X6.65Y-6.1
X6.65Y-7.9
X6.7Y-3.2
X6.7Y-4.0
X6.7Y-4.1
X6.7Y-5.9
X6.7Y-6.0
X6.725Y-5.3
X6.75Y-7.3
X6.8Y-5.5
X6.8Y-7.05
X6.8Y-7.5
X6.8089Y-7.853
X6.85Y-5.65
X6.8566Y-7.796
X6.9Y-4.1
X6.9Y-4.95
X6.9Y-5.8
X6.95Y-4.6
X6.95Y-4.7
X6.95Y-4.8
X6.95Y-5.95
X7.0Y-6.15
X7.0Y-6.25
X7.0Y-6.95
X7.05Y-5.25
X7.05Y-5.4
X7.05Y-8.155
X7.1Y-4.1
X7.1Y-7.35
X7.15Y-8.155
X7.1922Y-4.8967
X7.2Y-5.1
X7.25Y-7.95
X7.25Y-8.155
X7.3Y-7.2
X7.35Y-7.0
X7.4Y-3.9
X7.4Y-4.0
X7.4Y-5.05
X7.4Y-5.15
X7.4Y-6.75
X7.4Y-7.35
X7.4Y-7.5
X7.45Y-7.05
X7.5Y-5.1
X7.5Y-5.6
X7.5Y-6.6
X7.5Y-7.8
X7.55Y-3.25
X7.55Y-6.75
X7.55Y-6.85
X7.55Y-7.2
X7.55Y-7.3
X7.55Y-7.4
X7.55Y-7.7
X7.6Y-7.55
X7.6Y-7.8
X7.625Y-5.1
X7.65Y-5.45
X7.65Y-5.6
X7.65Y-7.7
X7.725Y-3.25
X7.75Y-7.65
X7.8Y-5.5
X7.8Y-7.8
X7.85Y-3.25
X7.85Y-5.1
X7.85Y-7.65
X7.875Y-3.65
X7.9Y-3.9
X7.9Y-7.75
X8.0Y-6.8
X8.0Y-7.0
X8.0Y-7.1
X8.0Y-7.25
X8.0Y-7.65
X8.05Y-4.1
X8.0959Y-5.4041
X8.1Y-4.3
X8.1Y-4.4
X8.1Y-4.5
X8.1Y-5.8
X8.15Y-4.6
X8.15Y-4.7
X8.1645Y-8.1572
X8.1645Y-8.2572
X8.2Y-4.9
X8.2Y-5.7
X8.2Y-6.8
X8.2Y-7.1
X8.25Y-5.0
X8.25Y-5.1
X8.2645Y-8.1572
X8.2645Y-8.2572
X8.3Y-6.9
X8.3Y-7.25
X8.35Y-5.0
X8.35Y-5.1
X8.4Y-5.8
X8.4Y-6.6
X8.5Y-4.7
X8.5Y-5.15
X8.55Y-6.7
X8.55Y-7.2
X8.6Y-4.9
X8.6Y-5.2
X8.6Y-5.3
X8.7Y-3.2
X8.7Y-5.25
X8.7Y-5.35
X8.7Y-5.6
X8.7Y-5.8
X8.7Y-6.0
X8.75Y-3.5
X8.75Y-3.6
X8.8Y-3.95
X8.8Y-4.05
X8.8Y-4.15
X8.8Y-4.25
X8.8Y-4.35
X8.8Y-4.45
X8.8Y-4.55
X8.8Y-5.0
X8.8Y-6.45
X8.9Y-3.2
X8.9Y-3.3
X8.9Y-3.4
X8.9Y-3.5
X8.9Y-3.85
X8.9Y-3.95
X8.9Y-4.05
X8.9Y-4.15
X8.9Y-4.25
X8.9Y-4.35
X8.9Y-4.45
X8.9Y-4.55
X8.9Y-5.3
X8.9Y-5.4
X8.9Y-5.5
X8.9Y-5.6
X8.9Y-7.9
X8.95Y-4.7
X9.0Y-7.9
X9.0Y-8.0
X9.05Y-6.7
X9.05Y-7.15
X9.05Y-7.5
X9.1Y-3.2
X9.1Y-6.45
X9.1Y-8.0
X9.15Y-5.0
X9.15Y-7.35
X9.2Y-6.9
X9.2Y-7.6
X9.3Y-6.4
X9.3Y-7.3
X9.3Y-7.6
X9.3Y-7.8
X9.3153Y-4.0207
X9.4Y-6.35
X9.5Y-6.75
X9.5Y-8.1
X9.55Y-5.0
X9.55Y-5.75
X9.55Y-5.95
X9.55Y-6.45
X9.55Y-6.55
X9.55Y-6.85
X9.6Y-6.95
X9.6142Y-8.1017
X9.65Y-6.3
X9.65Y-6.4
X9.65Y-7.05
X9.65Y-7.5
X9.65Y-7.7
X9.7Y-3.25
X9.7Y-3.7
X9.7Y-7.25
X9.7Y-7.8
X9.7389Y-8.1017
X9.75Y-4.95
X9.75Y-5.1
X9.75Y-6.2
X9.75Y-6.3
X9.8Y-4.8
X9.8Y-6.1
X9.85Y-6.2
X9.85Y-8.1
X9.9Y-6.1
X10.0Y-3.7
X10.0Y-4.55
X10.0Y-4.85
X10.0Y-5.0
X10.0Y-6.0
X10.0Y-6.1
X10.2Y-4.55
X10.2Y-6.3
X10.2Y-8.1
X10.3Y-3.7
X10.3Y-7.35
X10.3Y-8.15
X10.35Y-7.05
X10.4Y-4.55
X10.4Y-6.3
X10.4Y-7.2
X10.4Y-7.4
X10.4Y-7.5
X10.4Y-7.6
X10.4Y-7.7
X10.4Y-7.8
X10.4Y-8.15
X10.5Y-7.0
X10.5Y-7.1
X10.5Y-7.8
X10.6Y-3.25
X10.6Y-3.7
X10.6Y-5.7
X10.6Y-6.7
X10.6Y-6.8
X10.6Y-6.9
X10.6Y-7.6
X10.6Y-7.8
X10.65Y-4.9
X10.7Y-6.75
X10.7492Y-8.1494
X10.75Y-4.9
X10.85Y-4.9
X10.9Y-3.25
X10.9Y-3.7
X11.0Y-5.9
X11.0Y-6.0
X11.0Y-6.7
X11.0Y-8.15
X11.1Y-4.9
X11.1Y-6.7
X11.2Y-7.7
X11.2Y-7.9
X11.3Y-7.8
X11.3Y-8.15
X11.37Y-4.2
X11.4Y-3.65
X11.4Y-7.95
X11.5Y-5.75
X11.5Y-5.9
X11.5Y-7.9
X11.55Y-3.5
X11.55Y-3.7
X11.55Y-3.9
X11.55Y-6.9
X11.55Y-7.0
X11.55Y-7.1
X11.55Y-7.2
X11.55Y-7.3
X11.6Y-8.15
X11.6986Y-7.7994
X11.7Y-4.4
X11.7Y-5.75
X11.7Y-5.85
X11.7Y-5.95
X11.7Y-6.3
X11.7Y-6.4
X11.7Y-6.55
X11.7Y-7.05
X11.7Y-7.3
X11.7Y-7.55
X11.7Y-7.65
X11.75Y-6.1
X11.75Y-6.2
X11.9Y-7.1
X11.9Y-7.4
X11.9Y-7.7
X11.9Y-7.8
X11.9Y-7.95
X11.95Y-7.6
X11.95Y-8.15
X12.0Y-5.1
X12.0Y-5.3
X12.0Y-7.7
X12.0Y-7.8
X12.05Y-5.8
X12.05Y-7.6
X12.1Y-3.9
X12.1Y-4.1
X12.1Y-7.8
X12.1Y-7.95
X12.15Y-5.8
X12.2Y-7.95
X12.3Y-8.15
X12.35Y-5.1
X12.4Y-5.85
X12.4Y-5.95
X12.4Y-7.95
X12.425Y-5.64
X12.45Y-5.1
X12.45Y-7.5
X12.45Y-7.7
X12.475Y-6.05
X12.55Y-5.65
X12.55Y-7.9
X12.6Y-5.1
X12.6Y-7.8
X12.6Y-8.05
X12.65Y-5.65
X12.7Y-7.5
X12.7Y-8.0
X12.75Y-7.25
X12.75Y-7.35
X12.8Y-3.9
X12.8Y-4.1
X12.825Y-5.525
X12.95Y-8.05
X13.0Y-5.1
X13.075Y-5.525
X13.1Y-5.1
X13.15Y-7.6
X13.5Y-3.9
X13.5Y-4.1
X13.55Y-5.4
X13.55Y-5.7
X13.6Y-7.0
X13.6Y-7.1
X13.6Y-7.3
X13.6Y-7.4
X13.65Y-5.4
X13.8Y-5.0
X14.1Y-3.9
X14.1Y-4.1
X14.1Y-8.0
X14.28Y-8.0
X14.3Y-7.35
X14.4Y-4.3
X14.4Y-4.45
X14.4Y-4.65
X14.4Y-6.685
X14.4Y-6.785
X14.525Y-8.0
X14.6Y-4.65
X14.65Y-3.6
X14.65Y-3.8
X14.65Y-4.0
X14.7Y-8.1
X14.7985Y-8.099
X14.8993Y-3.1984
X14.9Y-5.2
X15.1Y-3.2
X15.25Y-6.15
X15.25Y-6.35
X15.25Y-7.6
X15.5Y-7.8
X15.5Y-8.0
T6
X0.8Y-5.4017
X0.8Y-5.5017
X0.8Y-5.6017
X0.8Y-5.7017
X0.8Y-5.8017
X0.8Y-5.9017
X0.8Y-6.0017
X0.8Y-6.1017
X0.8Y-6.2017
X0.8Y-6.3017
X0.8Y-6.4017
X0.8Y-6.5017
X0.8Y-6.6017
X0.8Y-6.7017
X0.8Y-6.8017
X0.8Y-6.9017
X0.8Y-7.0017
X0.8Y-7.1017
X0.8Y-7.2017
X0.8Y-7.3017
X1.4Y-5.4017
X1.4Y-5.5017
X1.4Y-5.6017
X1.4Y-5.7017
X1.4Y-5.8017
X1.4Y-5.9017
X1.4Y-6.0017
X1.4Y-6.1017
X1.4Y-6.2017
X1.4Y-6.3017
X1.4Y-6.4017
X1.4Y-6.5017
X1.4Y-6.6017
X1.4Y-6.7017
X1.4Y-6.8017
X1.4Y-6.9017
X1.4Y-7.0017
X1.4Y-7.1017
X1.4Y-7.2017
X1.4Y-7.3017
X1.65Y-6.2
X1.65Y-6.3
X1.65Y-6.4
X1.65Y-6.5
X1.65Y-6.6
X1.65Y-6.7
X1.65Y-6.8
X1.65Y-6.9
X1.65Y-7.0
X1.65Y-7.1
X1.65Y-7.2
X1.65Y-7.3
X1.9Y-5.0
X1.9Y-5.1
X1.9Y-5.2
X1.9Y-5.3
X1.9Y-5.4
X1.9Y-5.5
X1.9Y-5.6
X2.2Y-5.2
X2.2Y-5.3
X2.2Y-5.4
X2.2Y-5.5
X2.2Y-5.6
X2.25Y-6.2
X2.25Y-6.3
X2.25Y-6.4
X2.25Y-6.5
X2.25Y-6.6
X2.25Y-6.7
X2.25Y-6.8
X2.25Y-6.9
X2.25Y-7.0
X2.25Y-7.1
X2.45Y-4.6
X2.45Y-6.0
X2.45Y-6.1
X2.45Y-6.2
X2.45Y-6.3
X2.45Y-6.4
X2.45Y-6.5
X2.45Y-6.6
X2.45Y-6.7
X2.45Y-6.8
X2.45Y-6.9
X2.45Y-7.0
X2.45Y-7.1
X2.45Y-7.2
X2.45Y-7.3
X2.55Y-4.6
X2.65Y-4.6
X2.75Y-4.6
X2.85Y-4.6
X2.95Y-4.6
X3.05Y-4.6
X3.05Y-6.0
X3.05Y-6.1
X3.05Y-6.2
X3.05Y-6.3
X3.05Y-6.4
X3.05Y-6.5
X3.05Y-6.6
X3.05Y-6.7
X3.05Y-6.8
X3.05Y-6.9
X3.05Y-7.0
X3.05Y-7.1
X3.05Y-7.2
X3.05Y-7.3
X3.15Y-4.6
X4.0Y-4.5
X4.0Y-4.6
X4.0Y-4.7
X4.0Y-4.8
X4.0Y-4.9
X4.0Y-5.0
X4.0Y-5.1
X4.0Y-5.2
X4.0Y-5.3
X4.0Y-5.4
X4.0Y-5.5
X4.0Y-5.6
X4.0Y-5.7
X4.0Y-5.8
X4.0Y-5.9
X4.0Y-6.0
X4.0Y-6.1
X4.0Y-6.2
X4.0Y-6.3
X4.0Y-6.4
X4.0Y-6.9
X4.0Y-7.0
X4.0Y-7.1
X4.0Y-7.2
X4.0Y-7.3
X4.0Y-7.4
X4.0Y-7.5
X4.0Y-7.6
X4.0Y-7.7
X4.3Y-7.5
X4.3Y-7.6
X4.3Y-7.7
X4.6Y-4.5
X4.6Y-4.6
X4.6Y-4.7
X4.6Y-4.8
X4.6Y-4.9
X4.6Y-5.0
X4.6Y-5.1
X4.6Y-5.2
X4.6Y-5.3
X4.6Y-5.4
X4.6Y-5.5
X4.6Y-5.6
X4.6Y-5.7
X4.6Y-5.8
X4.6Y-5.9
X4.6Y-6.0
X4.6Y-6.1
X4.6Y-6.2
X4.6Y-6.3
X4.6Y-6.4
X4.6Y-6.9
X4.6Y-7.0
X4.6Y-7.1
X4.6Y-7.2
X4.6Y-7.3
X4.6Y-7.4
X4.6Y-7.5
X4.6Y-7.6
X4.6Y-7.7
X4.9Y-7.5
X4.9Y-7.6
X4.9Y-7.7
X5.1Y-5.6
X5.1Y-5.7
X5.1Y-5.8
X5.1Y-5.9
X5.1Y-6.0
X5.1Y-6.1
X5.1Y-6.2
X5.1Y-6.3
X5.2Y-4.3
X5.2Y-4.4
X5.2Y-4.5
X5.2Y-4.6
X5.2Y-4.7
X5.2Y-4.8
X5.2Y-4.9
X5.5Y-4.5
X5.5Y-4.6
X5.5Y-4.7
X5.5Y-4.8
X5.5Y-4.9
X5.8Y-4.15
X5.8Y-4.25
X5.8Y-4.35
X5.8Y-4.45
X5.8Y-4.55
X5.8Y-4.65
X6.0Y-4.3
X6.0Y-4.4
X6.0Y-4.5
X6.0Y-4.6
X6.0Y-4.7
X6.0Y-4.8
X6.0Y-4.9
X6.3Y-4.5
X6.3Y-4.6
X6.3Y-4.7
X6.3Y-4.8
X6.3Y-4.9
X6.5Y-6.1
X6.5Y-6.2
X6.5Y-6.3
X6.5Y-6.4
X6.5Y-6.5
X6.5Y-6.6
X6.5Y-6.7
X6.5Y-6.8
X6.5Y-6.9
X6.8Y-4.3
X6.8Y-4.4
X6.8Y-4.5
X6.8Y-4.6
X6.8Y-4.7
X6.8Y-4.8
X6.8Y-4.9
X6.8Y-6.7
X6.8Y-6.8
X6.8Y-6.9
X7.1Y-4.5
X7.1Y-4.6
X7.1Y-4.7
X7.1Y-4.8
X7.1Y-4.9
X7.2Y-5.6
X7.2Y-5.7
X7.2Y-5.8
X7.2Y-5.9
X7.2Y-6.0
X7.2Y-6.1
X7.2Y-6.2
X7.2Y-6.3
X7.2Y-6.4
X7.2Y-6.5
X7.2Y-6.6
X7.2Y-6.7
X7.2Y-6.8
X7.2Y-6.9
X7.2Y-7.0
X7.2Y-7.1
X7.2Y-7.2
X7.2Y-7.3
X7.2Y-7.4
X7.2Y-7.5
X7.8Y-5.6
X7.8Y-5.7
X7.8Y-5.8
X7.8Y-5.9
X7.8Y-6.0
X7.8Y-6.1
X7.8Y-6.2
X7.8Y-6.3
X7.8Y-6.4
X7.8Y-6.5
X7.8Y-6.6
X7.8Y-6.7
X7.8Y-6.8
X7.8Y-6.9
X7.8Y-7.0
X7.8Y-7.1
X7.8Y-7.2
X7.8Y-7.3
X7.8Y-7.4
X7.8Y-7.5
X8.1Y-6.7
X8.1Y-6.8
X8.1Y-6.9
X8.1Y-7.0
X8.1Y-7.1
X8.1Y-7.2
X8.1Y-7.3
X8.1Y-7.4
X8.4Y-7.1
X8.4Y-7.2
X8.4Y-7.3
X8.4Y-7.4
X9.4Y-6.5
X9.4Y-6.6
X9.4Y-6.7
X9.4Y-6.8
X9.4Y-6.9
X9.4Y-7.0
X9.4Y-7.1
X9.4Y-7.2
X9.4Y-7.3
X9.4Y-7.4
X9.4Y-7.5
X9.4Y-7.6
X9.4Y-7.7
X9.4Y-7.8
X10.0Y-6.5
X10.0Y-6.6
X10.0Y-6.7
X10.0Y-6.8
X10.0Y-6.9
X10.0Y-7.0
X10.0Y-7.1
X10.0Y-7.2
X10.0Y-7.3
X10.0Y-7.4
X10.0Y-7.5
X10.0Y-7.6
X10.0Y-7.7
X10.0Y-7.8
X10.8Y-5.9
X10.8Y-6.0
X10.8Y-6.1
X10.8Y-6.2
X10.8Y-6.3
X10.8Y-6.4
X10.8Y-6.5
X10.8Y-6.6
X10.8Y-6.7
X10.8Y-6.8
X10.8Y-6.9
X10.8Y-7.0
X10.8Y-7.1
X10.8Y-7.2
X10.8Y-7.3
X10.8Y-7.4
X10.8Y-7.5
X10.8Y-7.6
X10.8Y-7.7
X10.8Y-7.8
X11.4Y-5.9
X11.4Y-6.0
X11.4Y-6.1
X11.4Y-6.2
X11.4Y-6.3
X11.4Y-6.4
X11.4Y-6.5
X11.4Y-6.6
X11.4Y-6.7
X11.4Y-6.8
X11.4Y-6.9
X11.4Y-7.0
X11.4Y-7.1
X11.4Y-7.2
X11.4Y-7.3
X11.4Y-7.4
X11.4Y-7.5
X11.4Y-7.6
X11.4Y-7.7
X11.4Y-7.8
X11.6Y-5.9
X11.6Y-6.0
X11.6Y-6.1
X11.6Y-6.2
X11.6Y-6.3
X11.6Y-6.4
X11.6Y-6.5
X11.9Y-6.1
X11.9Y-6.2
X11.9Y-6.3
X11.9Y-6.4
X11.9Y-6.5
X12.05Y-6.0
X12.05Y-6.1
X12.05Y-6.2
X12.05Y-6.3
X12.05Y-6.4
X12.05Y-6.5
X12.05Y-6.6
X12.055Y-6.8
X12.055Y-6.9
X12.055Y-7.0
X12.055Y-7.1
X12.055Y-7.2
X12.055Y-7.3
X12.055Y-7.4
X12.3Y-5.0
X12.3Y-5.8
X12.3Y-5.9
X12.3Y-6.0
X12.3Y-6.1
X12.3Y-6.2
X12.3Y-6.3
X12.3Y-6.4
X12.3Y-6.5
X12.3Y-6.6
X12.3Y-6.7
X12.3Y-6.8
X12.3Y-6.9
X12.3Y-7.0
X12.3Y-7.1
X12.3Y-7.2
X12.3Y-7.3
X12.3Y-7.4
X12.3Y-7.5
X12.3Y-7.7
X12.4Y-5.0
X12.5Y-5.0
X12.6Y-5.0
X12.6Y-6.1
X12.6Y-6.2
X12.6Y-6.3
X12.6Y-6.4
X12.6Y-6.5
X12.6Y-6.6
X12.6Y-6.7
X12.6Y-6.9
X12.6Y-7.0
X12.6Y-7.1
X12.6Y-7.2
X12.6Y-7.3
X12.6Y-7.4
X12.6Y-7.5
X12.7Y-5.0
X12.8Y-5.0
X12.9Y-5.0
X13.0Y-5.0
X13.1Y-5.0
X14.7Y-6.2
X14.7Y-6.4
X14.7Y-6.6
X14.7Y-6.8
X14.7Y-7.0
X14.7Y-7.3
X14.7Y-7.5
X14.7Y-7.7
X14.7Y-7.9
X14.8Y-3.6
X14.8Y-3.8
X14.8Y-4.0
X14.8Y-4.2
X14.8Y-6.2
X14.8Y-6.4
X14.8Y-6.6
X14.8Y-6.8
X14.8Y-7.0
X14.8Y-7.3
X14.8Y-7.5
X14.8Y-7.7
X14.8Y-7.9
X14.9Y-6.2
X14.9Y-6.4
X14.9Y-6.6
X14.9Y-6.8
X14.9Y-7.0
X14.9Y-7.3
X14.9Y-7.5
X14.9Y-7.7
X14.9Y-7.9
X15.1Y-3.6
X15.1Y-3.8
X15.1Y-4.0
X15.1Y-4.2
T7
X2.15Y-5.95
X3.25Y-6.1
X3.2543Y-5.9
X9.7Y-5.6
X9.9Y-5.6
X14.9Y-4.4
X15.1Y-4.4
T8
X0.7977Y-5.1016
X0.9977Y-5.1016
X1.25Y-4.9
X1.25Y-5.1
X1.5Y-4.9
X1.5Y-5.1
X1.6Y-5.6
X1.6Y-5.8
X1.7Y-3.75
X1.7Y-3.95
X1.7Y-4.9
X1.7Y-5.1
X1.7Y-5.25
X1.7Y-5.45
X1.9Y-3.75
X1.9Y-3.95
X2.005Y-4.5
X2.0052Y-4.7313
X2.1Y-3.75
X2.1Y-3.95
X2.1Y-8.1
X2.1052Y-4.7313
X2.205Y-4.5
X2.2052Y-4.7313
X2.3Y-8.1
X2.4Y-3.75
X2.4Y-3.95
X2.5Y-5.8
X2.6Y-3.75
X2.6Y-3.95
X2.6Y-8.1
X2.7Y-5.8
X2.8Y-3.75
X2.8Y-3.95
X2.8Y-8.1
X2.9Y-5.8
X3.0Y-3.75
X3.0Y-3.95
X3.0Y-5.8
X3.1Y-5.8
X3.2059Y-5.0
X3.2059Y-5.1
X3.2059Y-5.2
X3.4Y-4.55
X3.4Y-5.15
X3.55Y-5.55
X3.55Y-5.75
X3.6Y-5.2
X3.6Y-5.4
X4.1Y-6.7
X4.3Y-6.7
X4.5998Y-6.7
X4.7998Y-6.7
X4.8Y-3.7
X4.8Y-3.9
X5.0Y-3.7
X5.0Y-3.9
X5.175Y-6.975
X5.175Y-7.175
X5.2Y-3.7
X5.2Y-3.9
X5.4Y-3.7
X5.4Y-3.9
X5.7Y-3.75
X5.9Y-3.75
X6.4001Y-5.6502
X6.4001Y-5.8502
X6.9Y-3.9
X7.0Y-6.6
X7.0Y-6.8
X7.1Y-3.9
X7.3Y-4.3
X7.3Y-4.5
X7.3Y-4.7
X7.3Y-4.9
X7.5Y-4.3
X7.5Y-4.5
X7.5Y-4.7
X7.5Y-4.9
X7.7Y-4.3
X7.7Y-4.5
X7.7Y-4.7
X7.7Y-4.9
X7.9Y-4.3
X7.9Y-4.5
X7.9Y-4.7
X7.9Y-4.9
X8.0882Y-6.5
X8.2Y-5.6
X8.2Y-6.0
X8.2Y-7.6
X8.2882Y-6.5
X8.3Y-4.2
X8.3Y-4.4
X8.4Y-4.75
X8.4Y-5.6
X8.4Y-6.0
X8.4Y-7.6
X8.5Y-4.2
X8.5Y-4.4
X8.6Y-4.75
X8.7Y-7.1
X8.8Y-7.1
X8.9Y-5.7
X8.9Y-5.9
X8.9Y-7.1
X9.2Y-5.7
X9.2Y-5.9
X9.25Y-6.5
X9.25Y-6.7
X9.25Y-7.0
X9.25Y-7.2
X9.3Y-5.7
X9.4Y-5.7
X9.4Y-5.9
X9.7Y-5.9
X9.9Y-5.9
X10.1844Y-5.5
X10.2Y-5.7
X10.2Y-5.9
X10.2Y-6.1
X10.2Y-6.5
X10.2Y-6.7
X10.2Y-6.9
X10.3844Y-5.5
X10.4Y-5.7
X10.4Y-5.9
X10.4Y-6.1
X10.4Y-6.5
X10.4Y-6.7
X10.4Y-6.9
X10.65Y-5.9
X10.65Y-6.1
X10.65Y-6.4
X10.65Y-6.6
X10.65Y-7.25
X10.65Y-7.45
X10.8Y-5.3
X10.8Y-5.5
X11.0Y-5.0
X11.0Y-5.5
X11.55Y-7.6
X11.55Y-7.8
X12.05Y-4.35
X12.05Y-4.55
X12.15Y-4.35
X12.15Y-4.55
X12.25Y-4.35
X12.25Y-4.55
X12.35Y-4.35
X12.35Y-4.55
X12.45Y-4.35
X12.45Y-4.55
X12.55Y-4.35
X12.55Y-4.55
X12.65Y-4.35
X12.65Y-4.55
X12.75Y-4.35
X12.75Y-4.55
X12.85Y-4.35
X12.85Y-4.55
X12.9Y-6.2
X12.95Y-4.35
X12.95Y-4.55
X13.0Y-6.2
X13.0Y-7.25
X13.0Y-7.45
X13.05Y-4.35
X13.05Y-4.55
X13.05Y-6.55
X13.05Y-6.75
X13.1Y-6.2
X13.15Y-4.35
X13.15Y-4.55
X13.15Y-7.25
X13.15Y-7.45
X13.25Y-4.35
X13.25Y-4.55
X13.3Y-6.2
X13.3Y-6.4
X13.3Y-6.8
X13.3Y-7.0
X13.3Y-7.25
X13.3Y-7.45
X13.35Y-4.35
X13.35Y-4.55
X13.45Y-4.35
X13.45Y-4.55
X13.45Y-7.25
X13.45Y-7.45
X13.5Y-6.2
X13.5Y-6.4
X13.55Y-4.35
X13.55Y-4.55
X13.65Y-4.35
X13.65Y-4.55
X13.75Y-4.35
X13.75Y-4.55
X13.85Y-4.35
X13.85Y-4.55
X13.9Y-6.4
X13.9Y-8.0
X13.95Y-4.35
X13.95Y-4.55
X14.05Y-4.35
X14.05Y-4.55
X14.15Y-4.35
X14.15Y-4.55
X14.65Y-4.8
X14.65Y-5.4
X14.65Y-5.75
X14.65Y-5.95
X14.8Y-3.4
X14.9Y-5.4
X15.0Y-3.4
X15.2032Y-5.4383
X15.2032Y-5.5474
X15.2032Y-5.6564
X15.2032Y-5.7655
X15.2032Y-5.8745
X15.205Y-6.69
X15.205Y-6.7991
X15.205Y-6.9081
X15.205Y-7.0172
X15.205Y-7.1262
X15.315Y-5.4928
X15.315Y-5.6019
X15.315Y-5.7109
X15.315Y-5.82
X15.3168Y-6.7445
X15.3168Y-6.8536
X15.3168Y-6.9626
X15.3168Y-7.0717
T9
X9.475Y-4.5951
X9.5735Y-4.5951
X9.6719Y-4.5951
X9.7703Y-4.5951
X10.7232Y-4.5951
X10.8216Y-4.5951
X10.92Y-4.5951
X11.0184Y-4.5951
T10
X14.4007Y-6.9071
X14.4007Y-8.0071
T11
X8.7Y-7.3
X8.9Y-7.3
X12.8Y-5.7
X12.8Y-5.9
X13.35Y-5.7
X13.35Y-5.9
X13.75Y-5.6
X13.75Y-5.9
X13.9Y-5.0
X13.9Y-5.2
X14.05Y-5.6
X14.05Y-5.9
T12
X6.8079Y-3.5437
X6.9063Y-3.15
X6.9063Y-3.6421
X7.1031Y-3.2437
X7.1031Y-3.5437
X7.1031Y-3.7406
X7.3Y-3.15
X7.3Y-3.6437
X7.3984Y-3.5437
X7.9844Y-3.5531
X7.9844Y-3.75
X8.0829Y-3.1594
X8.0829Y-3.6516
X8.2797Y-3.2531
X8.2797Y-3.5531
X8.2797Y-3.75
X8.4766Y-3.1594
X8.4766Y-3.6531
X8.575Y-3.5531
X8.575Y-3.75
X14.9565Y-4.872
X14.96Y-4.6818
X15.1065Y-4.6818
X15.1065Y-4.872
X15.2565Y-4.6818
X15.2565Y-4.872
X15.3594Y-3.7516
X15.3594Y-4.3421
X15.4579Y-3.85
X15.4579Y-4.2437
X15.5563Y-3.7516
X15.5563Y-4.0469
X15.5563Y-4.3421
X15.85Y-3.95
X15.85Y-4.15
T14
X14.35Y-5.025
X14.35Y-5.325
X14.35Y-6.1
X14.35Y-6.4
X15.76Y-4.6818
X15.76Y-4.872
T15
X11.54Y-4.23
X14.6357Y-4.23
T16
X0.805Y-8.195
X0.91Y-3.825
X1.155Y-8.195
X4.085Y-3.83
X7.695Y-3.84
X8.47Y-8.21
X15.345Y-3.345
X15.615Y-3.36
X15.73Y-8.205
X15.735Y-7.765
T13
G00X9.2156Y-4.0215
M15
G01X9.2156Y-3.9158
M16
G05
G00X10.1906Y-3.1565
M15
G01X10.2963Y-3.1565
M16
G05
G00X10.1938Y-4.7779
M15
G01X10.2995Y-4.7779
M16
G05
G00X11.2642Y-4.0079
M15
G01X11.2642Y-3.9022
M16
G05
G00X11.53Y-3.3078
M15
G01X11.53Y-3.2022
M16
G05
G00X14.6407Y-3.3128
M15
G01X14.6407Y-3.2071
M16
G05
T0
M30
