%TF.GenerationSoftware,KiCad,Pcbnew,7.0.0-da2b9df05c~171~ubuntu20.04.1*%
%TF.CreationDate,2023-03-01T01:24:29+01:00*%
%TF.ProjectId,C64-250469-KiCad,4336342d-3235-4303-9436-392d4b694361,1.0*%
%TF.SameCoordinates,Original*%
%TF.FileFunction,Profile,NP*%
%FSLAX46Y46*%
G04 Gerber Fmt 4.6, Leading zero omitted, Abs format (unit mm)*
G04 Created by KiCad (PCBNEW 7.0.0-da2b9df05c~171~ubuntu20.04.1) date 2023-03-01 01:24:29*
%MOMM*%
%LPD*%
G01*
G04 APERTURE LIST*
%TA.AperFunction,Profile*%
%ADD10C,0.100000*%
%TD*%
%TA.AperFunction,Profile*%
%ADD11C,0.300000*%
%TD*%
G04 APERTURE END LIST*
D10*
X80285463Y-78232000D02*
X79502000Y-77448498D01*
X139706463Y-77448498D02*
X146691463Y-77448498D01*
X300583663Y-106023498D02*
X300583663Y-95387298D01*
X147707463Y-78496298D02*
X146691463Y-77448498D01*
X44725463Y-78369298D02*
X44725463Y-87640298D01*
X367734963Y-77448498D02*
X405104663Y-77448498D01*
X45995463Y-87640298D02*
X45995463Y-78369298D01*
X137547463Y-78496298D02*
X136404463Y-77448498D01*
X81682463Y-78369298D02*
X82571463Y-77448498D01*
X121545463Y-77448498D02*
X136404463Y-77448498D01*
X120561263Y-78496298D02*
X121545463Y-77448498D01*
X297091263Y-106023498D02*
X300583663Y-106023498D01*
X35835463Y-78369298D02*
X36851463Y-77448498D01*
X137547463Y-87640298D02*
X138690463Y-87640298D01*
X80285463Y-78232000D02*
X80285463Y-87640298D01*
X405104663Y-77448498D02*
X405104663Y-213360000D01*
X15074463Y-89196098D02*
X35835463Y-89196098D01*
X80285463Y-87640298D02*
X81682463Y-87640298D01*
X36851463Y-77448498D02*
X43836463Y-77448498D01*
X300583663Y-95387298D02*
X364242463Y-95387298D01*
X147707463Y-78496298D02*
X147707463Y-89196098D01*
X35835463Y-89196098D02*
X35835463Y-78369298D01*
X367734963Y-106023498D02*
X367734963Y-77448498D01*
D11*
X396324663Y-173655898D02*
X396324663Y-177150298D01*
D10*
X364242463Y-106023498D02*
X367734963Y-106023498D01*
X137547463Y-78496298D02*
X137547463Y-87640298D01*
X86635463Y-89196098D02*
X120561263Y-89196098D01*
X46863000Y-77448498D02*
X79502000Y-77448498D01*
X85746463Y-77448498D02*
X86635463Y-78369298D01*
X44725463Y-78369298D02*
X43836463Y-77448498D01*
X147707463Y-89196098D02*
X159613663Y-89196098D01*
D11*
X396324663Y-145400298D02*
X392384163Y-145400298D01*
D10*
X405104663Y-213360000D02*
X15074463Y-213360000D01*
D11*
X396324663Y-177150298D02*
X392384163Y-177150298D01*
D10*
X297091263Y-77448498D02*
X297091263Y-106023498D01*
X82571463Y-77448498D02*
X85746463Y-77448498D01*
X138690463Y-87640298D02*
X138690463Y-78496298D01*
X86635463Y-78369298D02*
X86635463Y-89196098D01*
X81682463Y-87640298D02*
X81682463Y-78369298D01*
D11*
X392384163Y-145400298D02*
X392384163Y-141905898D01*
X392384163Y-173655898D02*
X396324663Y-173655898D01*
D10*
X159613663Y-77448498D02*
X297091263Y-77448498D01*
D11*
X396324663Y-141905898D02*
X396324663Y-145400298D01*
D10*
X159613663Y-89196098D02*
X159613663Y-77448498D01*
D11*
X392384163Y-177150298D02*
X392384163Y-173655898D01*
D10*
X15074463Y-213360000D02*
X15074463Y-89196098D01*
X138690463Y-78496298D02*
X139706463Y-77448498D01*
X45995463Y-78369298D02*
X46863000Y-77448498D01*
X44725463Y-87640298D02*
X45995463Y-87640298D01*
X364242463Y-95387298D02*
X364242463Y-106023498D01*
D11*
X392384163Y-141905898D02*
X396324663Y-141905898D01*
D10*
X120561263Y-89196098D02*
X120561263Y-78496298D01*
M02*
